<svg width="24" height="24" viewBox="0 0 24 24" fill="none" xmlns="http://www.w3.org/2000/svg">
  <path d="M22.65 14.39L12 22.13L1.35 14.39C1.20335 14.285 1.09569 14.1375 1.04307 13.9687C0.990444 13.7999 0.995453 13.6198 1.057 13.454L2.647 9.354L4.147 5.354C4.17723 5.28006 4.22584 5.21572 4.28761 5.16774C4.34938 5.11977 4.42198 5.08995 4.49828 5.08164C4.57457 5.07333 4.65197 5.08683 4.72148 5.12075C4.79099 5.15467 4.85008 5.20764 4.892 5.272L8 11H16L19.107 5.272C19.1489 5.20764 19.208 5.15467 19.2775 5.12075C19.347 5.08683 19.4244 5.07333 19.5007 5.08164C19.577 5.08995 19.6496 5.11977 19.7114 5.16774C19.7732 5.21572 19.8218 5.28006 19.852 5.354L21.352 9.354L22.942 13.454C23.0046 13.6198 23.0096 13.7999 22.957 13.9687C22.9043 14.1375 22.7967 14.285 22.65 14.39Z" fill="#E24329"/>
</svg>
