<svg width="16" height="16" viewBox="0 0 16 16" fill="none" xmlns="http://www.w3.org/2000/svg">
  <path d="M14.6667 2.66667V6.66667H10.6667" stroke="currentColor" stroke-width="1.5" stroke-linecap="round" stroke-linejoin="round"/>
  <path d="M1.33333 13.3333V9.33333H5.33333" stroke="currentColor" stroke-width="1.5" stroke-linecap="round" stroke-linejoin="round"/>
  <path d="M2.93333 6C3.26667 4.93333 3.93333 4 4.86667 3.33333C5.8 2.66667 6.86667 2.33333 8 2.33333C9.13333 2.33333 10.2 2.66667 11.1333 3.33333C12.0667 4 12.7333 4.93333 13.0667 6" stroke="currentColor" stroke-width="1.5" stroke-linecap="round" stroke-linejoin="round"/>
  <path d="M13.0667 10C12.7333 11.0667 12.0667 12 11.1333 12.6667C10.2 13.3333 9.13333 13.6667 8 13.6667C6.86667 13.6667 5.8 13.3333 4.86667 12.6667C3.93333 12 3.26667 11.0667 2.93333 10" stroke="currentColor" stroke-width="1.5" stroke-linecap="round" stroke-linejoin="round"/>
</svg>
